<svg xmlns="http://www.w3.org/2000/svg" data-name="Layer 1" viewBox="0 0 512 640" x="0px" y="0px"><title>Artboard 83</title><rect x="100" y="54" width="18" height="41"/><rect x="400" y="54" width="18" height="41"/><rect x="344" y="248" width="36" height="36"/><path d="M37,459H475V177H37ZM326,239a9,9,0,0,1,9-9h54a9,9,0,0,1,9,9v54a9,9,0,0,1-9,9H335a9,9,0,0,1-9-9Zm0,106a9,9,0,0,1,9-9h54a9,9,0,0,1,9,9v54a9,9,0,0,1-9,9H335a9,9,0,0,1-9-9ZM220,239a9,9,0,0,1,9-9h54a9,9,0,0,1,9,9v54a9,9,0,0,1-9,9H229a9,9,0,0,1-9-9Zm0,106a9,9,0,0,1,9-9h54a9,9,0,0,1,9,9v54a9,9,0,0,1-9,9H229a9,9,0,0,1-9-9ZM114,239a9,9,0,0,1,9-9h54a9,9,0,0,1,9,9v54a9,9,0,0,1-9,9H123a9,9,0,0,1-9-9Zm0,106a9,9,0,0,1,9-9h54a9,9,0,0,1,9,9v54a9,9,0,0,1-9,9H123a9,9,0,0,1-9-9Z"/><rect x="238" y="354" width="36" height="36"/><rect x="238" y="248" width="36" height="36"/><rect x="37" y="104" width="438" height="55"/><rect x="132" y="248" width="36" height="36"/><rect x="132" y="354" width="36" height="36"/><rect x="344" y="354" width="36" height="36"/><rect x="247" y="54" width="18" height="41"/></svg>