<svg xmlns="http://www.w3.org/2000/svg" xmlns:xlink="http://www.w3.org/1999/xlink" version="1.1" x="0px" y="0px" viewBox="0 0 95 118.75" enable-background="new 0 0 95 95" xml:space="preserve"><g><polygon points="73.068,41.533 59.57,41.533 59.57,53.221 47.883,53.221 47.883,66.719 59.57,66.719 59.57,78.406 73.068,78.406    73.068,66.719 84.756,66.719 84.756,53.221 73.068,53.221  "/><path d="M45.168,50.506h11.688V38.818h18.928v11.688h5.379l1.364-1.364c8.764-8.764,8.764-22.973,0-31.737   c-8.764-8.764-22.973-8.764-31.737,0l-3.289,3.29l-3.289-3.29c-8.765-8.764-22.974-8.764-31.737,0   c-8.764,8.765-8.764,22.974,0,31.737L47.5,84.169l9.355-9.355v-5.381H45.168V50.506z"/></g></svg>