<svg width="1414" height="1747" viewBox="0 0 1414 1747" fill="none" xmlns="http://www.w3.org/2000/svg">
<path d="M798.272 52.442V20.3839C798.272 3.86918 779.814 -5.84537 767.185 3.86918L676.84 63.128C665.182 70.8996 665.182 88.3858 676.84 97.1289L766.214 157.359C779.814 166.102 797.3 156.388 797.3 140.844V110.729C979.934 123.358 1125.65 275.877 1125.65 462.396C1125.65 477.94 1138.28 490.568 1153.82 490.568C1169.37 490.568 1182 477.94 1182 462.396C1182.97 243.819 1011.99 65.0709 798.272 52.442Z" />
<path d="M871.128 825.721L781.754 765.49C768.154 756.747 750.668 766.462 750.668 782.005V812.12C568.034 799.491 422.316 646.973 422.316 460.453C422.316 444.91 409.687 432.281 394.144 432.281C378.6 432.281 365 445.882 365 461.425C365 679.031 535.005 856.807 749.696 869.436V901.494C749.696 918.009 768.154 927.724 780.783 918.009L871.128 859.722C882.786 850.979 882.786 833.492 871.128 825.721Z" />
<path d="M773.985 200.104C629.238 200.104 512.663 316.679 512.663 461.426C512.663 606.173 629.238 722.747 773.985 722.747C918.732 722.747 1035.31 606.173 1035.31 461.426C1035.31 316.679 918.732 200.104 773.985 200.104ZM797.3 583.829V612.001C797.3 616.859 793.414 620.744 788.556 620.744H759.413C754.556 620.744 750.67 616.859 750.67 612.001V584.801C720.555 581.886 696.268 557.6 693.354 527.485C693.354 525.542 694.325 522.627 695.297 520.685C697.24 518.742 699.183 517.77 702.097 517.77H732.212C736.098 517.77 739.984 520.685 740.955 524.57C742.898 532.342 749.698 538.171 758.441 538.171H783.699C798.271 538.171 810.9 527.485 811.871 514.856C812.843 507.084 809.928 500.284 805.071 494.455C800.214 488.627 792.442 485.712 785.642 485.712H766.213C727.355 485.712 693.354 456.568 689.468 419.653C685.582 380.795 712.783 345.823 750.67 339.994V312.793C750.67 307.936 754.556 304.05 759.413 304.05H788.556C793.414 304.05 797.3 307.936 797.3 312.793V339.994C827.415 342.908 851.701 367.195 854.615 397.31C854.615 399.253 853.644 402.167 852.673 404.11C850.73 406.053 848.787 407.024 845.872 407.024H815.757C811.871 407.024 807.986 404.11 807.014 400.224C805.071 392.452 798.271 386.624 789.528 386.624H764.27C749.698 386.624 737.069 397.31 736.098 409.939C735.126 417.71 738.041 424.51 742.898 430.339C747.755 436.168 755.527 439.082 762.327 439.082H784.671C805.071 439.082 825.472 447.825 839.072 463.369C853.644 478.912 859.473 499.313 857.53 520.685C855.587 550.8 830.329 577.029 797.3 583.829Z" />
<path d="M302.765 1503.25L89.8086 1134.4L0.000528503 1186.25L212.957 1555.1L302.765 1503.25Z" />
<path d="M1382.54 1152.88C1369.67 1114 1326.87 1092.41 1288 1105.27L977.694 1209.38C968.671 1224.17 955.87 1237.95 940.303 1246.94C919.946 1258.69 895.441 1263.26 872.269 1259.07L520.585 1200.25C513.721 1199.42 507.684 1191.73 509.708 1184.17C510.535 1177.31 518.226 1171.27 525.781 1173.29L878.156 1233.32C895.662 1235.98 912.797 1232.48 928.363 1223.49C941.535 1215.89 951.435 1205.38 958.064 1191.97C960.779 1185.61 963.495 1179.26 964.827 1170.5C967.999 1151.11 964.306 1130.88 952.232 1115.5C941.354 1099.43 923.984 1088.7 903.898 1084.33L492.141 1015.48C438.933 1006.28 384.442 1016.98 337.741 1043.94L135.374 1160.78L302.697 1450.59L366.161 1413.95C385.32 1402.89 406.739 1398.51 429.035 1398.41C458.886 1400.33 487.218 1407.93 512.836 1421.88C530.206 1432.61 547.897 1438.36 564.206 1441.72C627.365 1451.56 689.968 1452.14 751.829 1440.38C787.988 1433.87 823.27 1423.08 857.675 1408.01L1336.14 1246.73C1340.42 1245.86 1345.21 1243.09 1350 1240.33C1379.94 1223.04 1393.84 1186.28 1382.54 1152.88Z" />
</svg>
