<svg xmlns="http://www.w3.org/2000/svg" viewBox="0 0 64 80" x="0px" y="0px"><title>Bonus-income-profit-salary-Finance</title><g><path d="M34,43a2,2,0,0,0-2-2H22V39h2V29.466a3.461,3.461,0,0,0-4.484.116l-6.847,6.161A1,1,0,0,1,12,36H11V50h6a4,4,0,0,0,4-4,1,1,0,0,1,1-1H32A2,2,0,0,0,34,43Z"/><path d="M3,52H9V34H3Zm2-4H7v2H5Z"/><circle cx="39" cy="34" r="4"/><path d="M26,39h6a4,4,0,0,1,0,8H26V60H52V12H26Zm7-5a6,6,0,1,1,6,6A6.006,6.006,0,0,1,33,34ZM30,58H28V56h2Zm20,0H48V56h2ZM48,14h2v2H48ZM28,14h2v2H28Zm0,5a1,1,0,0,1,1-1,3,3,0,0,0,3-3,1,1,0,0,1,1-1H45a1,1,0,0,1,1,1,3,3,0,0,0,3,3,1,1,0,0,1,1,1V53a1,1,0,0,1-1,1,3,3,0,0,0-3,3,1,1,0,0,1-1,1H33a1,1,0,0,1-1-1,3,3,0,0,0-3-3,1,1,0,0,1-1-1V49h2v3.1A5.013,5.013,0,0,1,33.9,56H44.1A5.013,5.013,0,0,1,48,52.1V19.9A5.013,5.013,0,0,1,44.1,16H33.9A5.013,5.013,0,0,1,30,19.9V37H28Z"/><path d="M32,4V6H57a1,1,0,0,1,1,1V54h2V4Z"/><path d="M28,10H53a1,1,0,0,1,1,1V58h2V8H28Z"/></g></svg>