<svg xmlns="http://www.w3.org/2000/svg" width="279.765" height="78.635" viewBox="0 0 279.765 78.635"><g transform="translate(-45.617 -189)"><g transform="translate(45.617 189)"><g transform="translate(139.883 39.317)"><g transform="translate(-139.883 -39.317)"><g transform="translate(113.003 7.277)"><g transform="translate(107.797)"><rect width="6.619" height="7.221" fill="#0072ce"/></g><g transform="translate(34.651 11.488)"><path d="M327.458,65.253l4.785-3.929V64.9h6.649V48.529c0-6.5-4.13-8.059-9.52-8.059-1.662,0-8.966.5-8.966.5v5.793s5.188-.453,8.059-.453c2.619,0,3.778.856,3.778,2.266v1.058l-5.44.3c-6.3.353-8.362,3.526-8.362,7.1v1.965c0,3.677,2.871,6.447,7.606,6.447A4.77,4.77,0,0,0,327.458,65.253Zm-2.72-8.009v-.6c0-1.36,1.159-1.914,2.317-2.015l5.188-.353v3.577l-3.022.906a9.519,9.519,0,0,1-2.469.454C325.544,59.209,324.737,58.7,324.737,57.244Z" transform="translate(-318.441 -40.47)" fill="#0072ce"/></g><g transform="translate(60.237 11.488)"><path d="M383.645,65.454a39.622,39.622,0,0,0,7.2-.655V59.611s-4.08.554-6.2.554c-3.223,0-4.383-.3-4.383-4.13V50.192c0-3.778,1.713-4.433,4.181-4.433,2.116,0,5.944.5,5.944.5V40.974s-5.289-.5-6.951-.5c-7.506,0-9.823,3.728-9.823,8.664v7.959C373.621,63.591,378.255,65.454,383.645,65.454Z" transform="translate(-373.621 -40.47)" fill="#0072ce"/></g><g transform="translate(81.29 0.154)"><path d="M433.13,37.285V51.791h6.649V35.018c0-4.433-2.518-7.657-7.959-7.657a4.77,4.77,0,0,0-1.41.2l-4.735,3.929V16.028h-6.649V51.791h6.649V35.018l4.08-.655C431.467,34.111,433.13,34.413,433.13,37.285Z" transform="translate(-419.026 -16.028)" fill="#0072ce"/></g><g transform="translate(107.783 12.042)"><rect width="6.649" height="23.876" fill="#0072ce"/></g><g transform="translate(120.173 11.488)"><path d="M515.676,40.47a4.768,4.768,0,0,0-1.411.2L509.531,44.6V41.024h-6.649V64.9h6.649V48.127l4.08-.655c1.713-.252,3.375.05,3.375,2.922V64.9h6.649V48.127C523.635,43.694,521.116,40.47,515.676,40.47Z" transform="translate(-502.882 -40.47)" fill="#0072ce"/></g><g transform="translate(146.11 11.488)"><path d="M579.474,55.279v-6.4c0-4.936-2.519-8.412-10.276-8.412s-10.377,3.476-10.377,8.412v7.506c0,7.1,5.49,9.067,11.434,9.067a68.66,68.66,0,0,0,8.412-.554v-5.34a61.9,61.9,0,0,1-8.059.6c-3.728,0-5.138-.756-5.138-4.282v-.6Zm-14-5.994c0-2.669,1.159-3.526,3.728-3.526,3.123,0,3.677,1.36,3.677,3.425v1.461h-7.4Z" transform="translate(-558.821 -40.47)" fill="#0072ce"/></g><g transform="translate(0 1.867)"><path d="M266.628,53.772h6.4V19.721h-8.093L258.619,37.8h-.5L251.8,19.721h-8.093V53.772h6.4V32.918h.2l4.287,12.593h7.546l4.287-12.593h.2V53.772Z" transform="translate(-243.709 -19.721)" fill="#0072ce"/></g></g><g transform="translate(42.457 17.122)"><path d="M99.521,52.431a14.846,14.846,0,0,1-2.355.2,3.486,3.486,0,0,1-3.825-3.775V42.8H91.566V40.371H93.34v-2.28l1.393-1.165h1.951v3.445H99.6V42.8H96.684v4.662c0,1.368-.076,2.28,1.267,2.28a11.9,11.9,0,0,0,1.57-.127Z" transform="translate(-91.566 -36.926)" fill="#333f48"/><path d="M123.233,48.113v3.978c0,3.268-2.812,4.231-5.371,4.231s-5.371-.963-5.371-4.231V48.113c0-2.483,1.6-4.357,5.371-4.357S123.233,45.631,123.233,48.113Zm-7.4.457v2.913c0,1.6.608,2.254,2.027,2.254s2.027-.658,2.027-2.254V48.57c0-1.571-.608-2.23-2.027-2.23S115.835,47,115.835,48.57Z" transform="translate(-102.789 -40.589)" fill="#333f48"/></g><path d="M39.932,45.3H26.956l-2.816,8.65H17.1l11.719-34h9.255l11.751,34H42.781ZM28.968,39.016h8.9L33.7,26.041h-.5Z" transform="translate(-9.17 -10.702)" fill="#333f48"/><path d="M142.309,53.954V47.919l16.44-22.029h-16.44V19.955H165.74V25.89L149.948,47.969H165.79v5.985Z" transform="translate(-76.324 -10.702)" fill="#333f48"/><path d="M141.495,12.635a10.022,10.022,0,0,0-2.143-4.4,15.018,15.018,0,0,0-3.332-2.918,27.883,27.883,0,0,0-7.371-3.161A64.779,64.779,0,0,0,113.627.062a115.73,115.73,0,0,0-14.9.491,154.631,154.631,0,0,0-29.08,5.615c-1.438.424-2.867.881-4.291,1.354l.8,2.309c1.387-.455,2.78-.892,4.184-1.292A132.337,132.337,0,0,1,98.959,3.722a108.77,108.77,0,0,1,14.446.132A60.759,60.759,0,0,1,127.3,6.5a23.3,23.3,0,0,1,5.954,2.891,6.743,6.743,0,0,1,3.022,4.184,4.82,4.82,0,0,1-.329,2.308,9.98,9.98,0,0,1-1.436,2.387,23.9,23.9,0,0,1-4.836,4.211c-.789.537-1.6,1.055-2.427,1.564l-1.392-2.793-8.119,11.321,9.017-.013v.048l.083-.048,4.65-.006L130.4,30.383a40.339,40.339,0,0,0,3.4-2.569,28.782,28.782,0,0,0,5.526-6.124,15.873,15.873,0,0,0,1.908-4.117A10.207,10.207,0,0,0,141.495,12.635Z" transform="translate(-35.05 0)" fill="#0072ce"/><path d="M2.268,39.5A13.807,13.807,0,0,0,.446,43.08a8.62,8.62,0,0,0-.318,4.185A8.581,8.581,0,0,0,1.935,51.04,13.707,13.707,0,0,0,4.914,53.7,22.122,22.122,0,0,0,7.2,54.971l.686-1.99c-.607-.332-1.2-.68-1.765-1.061a8.228,8.228,0,0,1-3.711-5.067A8.2,8.2,0,0,1,4.2,40.87a24.661,24.661,0,0,1,4.956-4.9A51.162,51.162,0,0,1,15.083,32.1l1.162-3.372a55.725,55.725,0,0,0-8.572,5.327A26.95,26.95,0,0,0,2.268,39.5Z" transform="translate(0 -15.409)" fill="#0072ce"/><g transform="translate(51.796 53.927)"><path d="M186.6,116.3l5.3,12.354-5.3,12.354H292.069l-5.3-12.354,5.3-12.354Z" transform="translate(-151.876 -116.303)" fill="#333f48"/><g transform="translate(48.392 5.563)"><path d="M224.288,139.23v2.29h-8.216V139.5l3.983-4.56a3.56,3.56,0,0,0,1.174-2.175v-1.481c0-.462-.154-.731-.77-.731-.865,0-3.733.25-3.733.25v-2.271s2.655-.23,3.906-.23c1.443,0,3.137.461,3.137,2.5v2.1a4.277,4.277,0,0,1-1.4,2.905l-2.982,3.349v.077Z" transform="translate(-216.072 -128.301)" fill="#fff"/><path d="M249.344,138.705c0,2.6-1.847,3.271-3.945,3.271-1.366,0-3.849-.249-3.849-.249v-2.29a29.8,29.8,0,0,0,3.175.25c1.232,0,2.078-.039,2.078-1.463v-.75c0-1.289-.923-1.5-1.847-1.5h-3.136v-7.215h6.965v2.271H244.36v2.693H245.9c2.406,0,3.444,1.385,3.444,3.252Z" transform="translate(-229.737 -128.546)" fill="#fff"/><path d="M278.687,132.973h2.021l-3.137,5.58V142.4h-1.886v-3.848l-3.136-5.58h2.02l1.963,3.906h.192Z" transform="translate(-246.362 -130.807)" fill="#fff"/><path d="M298.194,142.4v-9.428h6.388v1.751h-4.5V136.8h3.694v1.732H300.08v2.1h4.656v1.77Z" transform="translate(-260.116 -130.807)" fill="#fff"/><path d="M325.142,140.131H321.37l-.751,2.27h-1.886l3.195-9.428h2.655l3.194,9.428h-1.886ZM321.89,138.5H324.6l-1.251-3.849h-.192Z" transform="translate(-271.132 -130.807)" fill="#fff"/><path d="M353.084,136.783a2.128,2.128,0,0,1-1.27,2.059l2.02,3.56h-2.116l-1.809-3.213H348V142.4H346.08v-9.428h4.214c1.6,0,2.79.712,2.79,2.213Zm-3.04.75c.808,0,1.078-.365,1.078-.982v-.865c0-.616-.27-.982-1.078-.982H348v2.828Z" transform="translate(-285.798 -130.807)" fill="#fff"/><path d="M376.733,139.946c0,1.906-1.847,2.444-3.445,2.444a30.8,30.8,0,0,1-3.31-.212v-1.712s1.886.231,3.021.231c1.212,0,1.77-.289,1.77-.924v-.538c0-.481-.173-.751-.9-.847l-1.77-.231a2.317,2.317,0,0,1-2.155-2.328V135c0-1.635,1.308-2.444,3.464-2.444a25.964,25.964,0,0,1,2.81.193v1.713s-1.54-.193-2.54-.193c-1.212,0-1.77.251-1.77.982v.422c0,.52.192.77.962.866l1.712.231a2.273,2.273,0,0,1,2.156,2.328Z" transform="translate(-298.595 -130.584)" fill="#fff"/></g><g transform="translate(0 7.615)"><path d="M114.145,142.6v-6.761l-2.438.5v-2l4.38-.952V142.6Z" transform="translate(-111.707 -133.078)" fill="#0072ce"/><path d="M127.065,136.553V135.2c0-1.733,1.619-2.476,3.332-2.476s3.314.743,3.314,2.476v4.418c0,1.257-.666,2.838-3.142,2.838-.666,0-2.171-.114-2.933-.191v-1.752s1.771.191,2.514.191c1.085,0,1.676-.4,1.676-1.352V138.5a4.478,4.478,0,0,1-2.018.4C127.617,138.9,127.065,137.734,127.065,136.553Zm4.761.457v-1.429c0-.933-.476-1.3-1.447-1.3-.952,0-1.41.362-1.41,1.3v.8c0,.8.476,1.028,1.162,1.028A4.163,4.163,0,0,0,131.826,137.01Z" transform="translate(-119.944 -132.725)" fill="#0072ce"/><path d="M146.446,136.553V135.2c0-1.733,1.619-2.476,3.332-2.476s3.314.743,3.314,2.476v4.418c0,1.257-.666,2.838-3.142,2.838-.666,0-2.171-.114-2.933-.191v-1.752s1.771.191,2.514.191c1.085,0,1.676-.4,1.676-1.352V138.5a4.477,4.477,0,0,1-2.018.4C147,138.9,146.446,137.734,146.446,136.553Zm4.761.457v-1.429c0-.933-.476-1.3-1.447-1.3-.952,0-1.41.362-1.41,1.3v.8c0,.8.476,1.028,1.162,1.028A4.163,4.163,0,0,0,151.207,137.01Z" transform="translate(-130.338 -132.725)" fill="#0072ce"/><path d="M172.843,138.629v1.353c0,1.733-1.619,2.476-3.314,2.476-1.733,0-3.332-.743-3.332-2.476v-4.418a2.739,2.739,0,0,1,3.066-2.838c.781,0,2.247.115,3.009.191v1.752s-1.809-.191-2.609-.191c-1.048,0-1.581.419-1.581,1.352v.857a5.029,5.029,0,0,1,1.771-.4C172.291,136.287,172.843,137.315,172.843,138.629Zm-4.761-.456V139.6c0,.934.476,1.3,1.447,1.3.952,0,1.41-.362,1.41-1.3v-.8c0-.781-.476-1.028-1.124-1.028A4.111,4.111,0,0,0,168.082,138.172Z" transform="translate(-140.931 -132.725)" fill="#0072ce"/></g><g transform="translate(143.366 7.901)"><path d="M428.747,140.826v1.752H420.9v-1.657l3.962-2.667c.819-.552,1.409-.914,1.409-1.942v-.286c0-.609-.19-.876-1.028-.876-1.066,0-3.6.247-3.6.247V133.57s2.514-.228,3.751-.228c1.467,0,2.819.438,2.819,2.019V136.5a2.928,2.928,0,0,1-1.581,2.476l-2.667,1.772v.076Z" transform="translate(-420.901 -133.342)" fill="#0072ce"/><path d="M450.109,137.4v1.39c0,3.009-1.638,4.019-4.133,4.019s-4.132-1.01-4.132-4.019V137.4c0-3.009,1.657-4.018,4.132-4.018S450.109,134.392,450.109,137.4Zm-6.323.114v1.162c0,1.638.59,2.323,2.19,2.323s2.19-.685,2.19-2.323v-1.162c0-1.638-.591-2.285-2.19-2.285S443.786,135.878,443.786,137.515Z" transform="translate(-432.133 -133.364)" fill="#0072ce"/><path d="M471.411,140.826v1.752h-7.846v-1.657l3.962-2.667c.819-.552,1.41-.914,1.41-1.942v-.286c0-.609-.191-.876-1.028-.876-1.067,0-3.6.247-3.6.247V133.57s2.514-.228,3.751-.228c1.467,0,2.819.438,2.819,2.019V136.5a2.928,2.928,0,0,1-1.581,2.476l-2.667,1.772v.076Z" transform="translate(-443.783 -133.342)" fill="#0072ce"/><path d="M484.646,142.6v-6.761l-2.438.5v-2l4.38-.952V142.6Z" transform="translate(-453.781 -133.364)" fill="#0072ce"/></g></g></g></g></g></g></svg>