<svg width="300" height="47" viewBox="0 0 300 47" fill="none" xmlns="http://www.w3.org/2000/svg">
<path d="M243.998 7.81836H236.88V15.5829H243.998V7.81836Z" fill="white"/>
<path d="M168.252 46.4776L173.367 42.273V46.1093H180.484V28.5776C180.484 21.6212 176.063 19.9512 170.293 19.9512C168.503 19.9512 160.697 20.4908 160.697 20.4908V26.6902C160.697 26.6902 166.249 26.2043 169.324 26.2043C172.137 26.2043 173.367 27.1224 173.367 28.6313V29.7643L167.544 30.0866C160.805 30.4651 158.592 33.8614 158.592 37.69V39.7923C158.592 43.7283 161.661 46.6975 166.735 46.6975C167.249 46.7005 167.76 46.6264 168.252 46.4776ZM165.342 37.9048V37.2578C165.342 35.8026 166.579 35.2118 167.82 35.1018L173.375 34.7233V38.5595L170.139 39.5288C169.284 39.8073 168.396 39.9707 167.498 40.0148C166.203 40.0071 165.342 39.47 165.342 37.9048Z" fill="white"/>
<path d="M196.717 46.6928C199.303 46.6948 201.884 46.4602 204.428 45.992V40.4397C204.428 40.4397 200.06 41.033 197.796 41.033C194.346 41.033 193.106 40.7082 193.106 36.6111V30.358C193.106 26.312 194.937 25.6113 197.579 25.6113C199.845 25.6113 203.942 26.1509 203.942 26.1509V20.4912C203.942 20.4912 198.28 19.9438 196.502 19.9438C188.469 19.9438 185.988 23.9336 185.988 29.2173V37.7441C185.988 44.6979 190.947 46.6928 196.717 46.6928Z" fill="white"/>
<path d="M223.619 30.5724V46.099H230.737V28.1454C230.737 23.4012 228.041 19.9614 222.218 19.9614C221.707 19.9572 221.198 20.0296 220.709 20.1762L215.64 24.3731V7.81836H208.522V46.099H215.64V28.1454L220.008 27.4446C221.839 27.1761 223.619 27.4983 223.619 30.5724Z" fill="white"/>
<path d="M243.998 20.5444H236.88V46.1015H243.998V20.5444Z" fill="white"/>
<path d="M263.836 19.9435C263.325 19.9396 262.817 20.012 262.327 20.1583L257.258 24.3654V20.5292H250.136V46.0837H257.253V28.1301L261.621 27.4293C263.455 27.1736 265.233 27.483 265.233 30.5571V46.0837H272.35V28.1301C272.355 23.4013 269.66 19.9435 263.836 19.9435Z" fill="white"/>
<path d="M300.007 35.8V28.9536C300.007 23.6723 297.311 19.9512 289.01 19.9512C280.708 19.9512 277.902 23.6723 277.902 28.9536V36.9892C277.902 44.5901 283.785 46.6924 290.143 46.6924C293.153 46.6801 296.159 46.4819 299.145 46.0991V40.3856C296.287 40.7881 293.405 41.0042 290.519 41.0327C286.529 41.0327 285.02 40.2219 285.02 36.4496V35.8H300.007ZM285.017 29.3832C285.017 26.5265 286.258 25.6084 289.007 25.6084C292.35 25.6084 292.943 27.0661 292.943 29.2758V30.8385H285.015L285.017 29.3832Z" fill="white"/>
<path d="M146.043 46.1019H152.889V9.65234H144.227L137.47 29.0075H136.93L130.173 9.65234H128.411H121.511V46.1019H128.358V23.78H128.575L133.163 37.258H134.774H139.626H141.24L145.828 23.78H146.043V46.1019Z" fill="white"/>
<path d="M54.2133 35.0736C53.3767 35.2153 52.5299 35.2889 51.6814 35.2935C49.372 35.2884 47.5817 34.0404 47.5817 31.2348V24.7234H45.6738V22.1071H47.5817V19.657L49.0804 18.4038H51.1622V22.1071H54.2952V24.7234H51.1622V29.7361C51.1622 31.2067 51.0804 32.1862 52.5228 32.1862C53.0878 32.1781 53.6517 32.1328 54.2108 32.0506L54.2133 35.0736Z" fill="white"/>
<path d="M67.6424 26.4934V30.7696C67.6424 34.2836 64.6195 35.3194 61.8676 35.3194C59.1157 35.3194 56.0928 34.2836 56.0928 30.7696V26.4934C56.0928 23.8234 57.8089 21.8081 61.8676 21.8081C65.9264 21.8081 67.6424 23.8234 67.6424 26.4934ZM59.6886 26.9845V30.1174C59.6886 31.8335 60.3408 32.5419 61.8676 32.5419C63.3944 32.5419 64.0466 31.8335 64.0466 30.1174V26.9845C64.0466 25.2965 63.3944 24.5881 61.8676 24.5881C60.3408 24.5881 59.6886 25.2965 59.6886 26.9845Z" fill="white"/>
<path d="M33.0856 37.1966H19.1344L16.1063 46.4982H8.53613L21.1369 9.94385H31.0856L43.7197 46.4982H36.1495L33.0856 37.1966ZM21.2981 30.4294H30.8682L26.3798 16.4859H25.8427L21.2981 30.4294Z" fill="white"/>
<path d="M70.96 46.4983V40.0099L88.6348 16.3249H70.96V9.93115H96.1513V16.3249L79.1721 40.0636H96.2051V46.4983H70.96Z" fill="white"/>
<path d="M114.46 13.5806C114.096 11.8376 113.305 10.2121 112.159 8.84921C111.127 7.63213 109.92 6.57464 108.578 5.71116C106.113 4.20226 103.443 3.05827 100.65 2.3148C95.2791 0.818657 89.8675 0.268794 84.4967 0.0616368C79.15 -0.106788 73.7979 0.070047 68.474 0.59104C63.1793 1.07572 57.9132 1.83376 52.6967 2.8621C47.4762 3.85064 42.3101 5.10718 37.2187 6.62674C35.6842 7.08454 34.1369 7.57558 32.6152 8.08452L33.4746 10.5653C34.963 10.0768 36.4617 9.60623 37.9706 9.17657C42.9877 7.7711 48.0736 6.62383 53.2082 5.73929C58.3486 4.89152 63.5293 4.31019 68.7297 3.99763C73.9043 3.70028 79.093 3.74727 84.2614 4.13829C89.3764 4.59353 94.4914 5.41705 99.1998 6.98735C101.468 7.71431 103.621 8.76152 105.594 10.0973C107.384 11.4169 108.663 13.0179 108.844 14.5959C108.931 15.4393 108.81 16.291 108.491 17.0767C108.101 17.9965 107.585 18.8573 106.957 19.6342C105.435 21.3702 103.686 22.8928 101.757 24.161C100.908 24.739 100.036 25.2965 99.1461 25.8438L97.6525 22.8413L88.9161 35.0329H98.6115V35.0841L98.7011 35.0329H103.701L102.535 32.6954C103.801 31.8397 105.021 30.9177 106.189 29.9333C108.476 28.0354 110.477 25.8174 112.131 23.3477C113.022 21.979 113.711 20.4888 114.177 18.9232C114.711 17.1931 114.808 15.3576 114.46 13.5806Z" fill="white"/>
<path d="M2.4494 25.8952C1.61257 27.077 0.952603 28.3745 0.49035 29.7468C-0.0142243 31.1886 -0.131922 32.7376 0.148999 34.2391C0.429919 35.7406 1.09964 37.1423 2.09135 38.3042C3.01337 39.4116 4.09308 40.3776 5.29589 41.1711C6.08878 41.6738 6.91028 42.1298 7.75621 42.5369L8.49277 40.4039C7.84061 40.0484 7.21402 39.6725 6.5951 39.2633C4.6156 37.8464 2.95067 35.982 2.60285 33.803C2.20643 31.6342 3.13736 29.3478 4.5312 27.3709C6.0491 25.3733 7.84273 23.6012 9.85848 22.1075C11.8842 20.5753 14.0127 19.1842 16.2292 17.9439L17.4798 14.3174C14.244 15.9438 11.1624 17.8604 8.27283 20.0436C6.06291 21.7069 4.10195 23.6773 2.4494 25.8952Z" fill="white"/>
</svg>
