<svg width="300" height="47" viewBox="0 0 300 47" fill="none" xmlns="http://www.w3.org/2000/svg">
<g clip-path="url(#clip0_243_2)">
<path d="M243.867 7.80273H236.769V15.5466H243.867V7.80273Z" fill="#0072CE"/>
<path d="M168.002 46.6978L173.134 42.484V46.3101H180.276V28.7638C180.276 21.7953 175.848 20.1221 170.073 20.1221C168.287 20.1221 160.457 20.6628 160.457 20.6628V26.8738C160.457 26.8738 166.022 26.3866 169.101 26.3866C171.907 26.3866 173.152 27.3048 173.152 28.8174V29.9525L167.3 30.2764C160.549 30.6539 158.332 34.0565 158.332 37.8928V39.9996C158.332 43.943 161.411 46.9146 166.494 46.9146C167.005 46.9173 167.513 46.8442 168.002 46.6978V46.6978ZM165.084 38.1096V37.4617C165.084 36.0027 166.328 35.4084 167.571 35.3013L173.134 34.9212V38.7472L169.892 39.7191C169.035 39.9975 168.146 40.1613 167.247 40.2062C165.948 40.2164 165.084 39.6757 165.084 38.1096V38.1096Z" fill="#0072CE"/>
<path d="M196.519 46.9152C199.11 46.9171 201.695 46.6815 204.243 46.2112V40.6481C204.243 40.6481 199.868 41.2424 197.611 41.2424C194.152 41.2424 192.91 40.9185 192.91 36.8119V30.5474C192.91 26.4969 194.746 25.7929 197.394 25.7929C199.662 25.7929 203.771 26.3336 203.771 26.3336V20.6609C203.771 20.6609 198.098 20.1201 196.315 20.1201C188.268 20.1201 185.783 24.1171 185.783 29.4097V37.9444C185.77 44.9154 190.739 46.9152 196.519 46.9152Z" fill="#0072CE"/>
<path d="M223.47 30.7637V46.323H230.599V28.3329C230.599 23.5784 227.9 20.1222 222.064 20.1222C221.553 20.1178 221.044 20.1909 220.554 20.339L215.476 24.5502V7.9707H208.347V46.3178H215.476V28.3329L219.85 27.6289C221.687 27.3585 223.47 27.6825 223.47 30.7637Z" fill="#0072CE"/>
<path d="M243.882 20.7168H236.753V46.3207H243.882V20.7168Z" fill="#0072CE"/>
<path d="M263.76 20.1223C263.248 20.1177 262.738 20.1908 262.248 20.3391L257.169 24.5503V20.7242H250.027V46.3179H257.169V28.333L261.544 27.629C263.38 27.3586 265.163 27.6825 265.163 30.7638V46.323H272.305V28.333C272.295 23.5785 269.594 20.1223 263.76 20.1223Z" fill="#0072CE"/>
<path d="M300 36.0027V29.1413C300 23.8486 297.299 20.1221 288.981 20.1221C280.663 20.1221 277.853 23.8486 277.853 29.1413V37.1913C277.853 44.8051 283.742 46.9146 290.114 46.9146C293.13 46.9008 296.143 46.7014 299.136 46.3177V40.5939C296.272 40.9974 293.385 41.2138 290.494 41.2418C286.497 41.2418 284.984 40.4307 284.984 36.6506V36.0027H300ZM284.984 29.5877C284.984 26.7258 286.226 25.805 288.981 25.805C292.33 25.805 292.922 27.264 292.922 29.4806V31.0467H284.984V29.5877Z" fill="#0072CE"/>
<path d="M145.752 46.3179H152.611V9.80469H143.933L137.164 29.1976H136.623V29.1951L129.853 9.80469H128.088H121.176V46.3179H128.035V23.9559H128.251L132.848 37.4619H134.462H139.324H140.939L145.535 23.9559H145.752V46.3179Z" fill="#0072CE"/>
<path d="M54.0568 34.9858C53.2224 35.1271 52.3779 35.2005 51.5316 35.2051C49.2283 35.2 47.4429 33.9553 47.4429 31.1572V24.6631H45.54V22.0538H47.4429V19.6102L48.9376 18.3604H51.0138V22.0538H54.1384V24.6631H51.0138V29.6625C51.0138 31.1291 50.9322 32.106 52.3708 32.106C52.9343 32.0979 53.4967 32.0528 54.0543 31.9709L54.0568 34.9858Z" fill="#333F48"/>
<path d="M67.4506 26.4278V30.6925C67.4506 34.1972 64.4357 35.2302 61.6911 35.2302C58.9466 35.2302 55.9316 34.1972 55.9316 30.6925V26.4278C55.9316 23.7648 57.6432 21.7549 61.6911 21.7549C65.7391 21.7549 67.4506 23.7648 67.4506 26.4278ZM59.5179 26.9175V30.0421C59.5179 31.7536 60.1683 32.4602 61.6911 32.4602C63.2139 32.4602 63.8643 31.7536 63.8643 30.0421V26.9175C63.8643 25.234 63.2139 24.5275 61.6911 24.5275C60.1683 24.5275 59.5179 25.234 59.5179 26.9175Z" fill="#333F48"/>
<path d="M32.9861 37.1021H19.072L16.052 46.379H8.50195L21.0692 9.92188H30.9914L43.5919 46.379H36.0418L32.9861 37.1021ZM21.2299 30.3529H30.7746L26.2982 16.4466H25.7625L21.2299 30.3529Z" fill="#333F48"/>
<path d="M70.7588 46.379V39.9079L88.3866 16.2859H70.7588V9.90918H95.8831V16.2859L78.9491 39.9615H95.9367V46.379H70.7588Z" fill="#333F48"/>
<path d="M114.144 13.5493C113.78 11.811 112.991 10.1898 111.848 8.83054C110.819 7.61671 109.616 6.56203 108.277 5.70084C105.819 4.19596 103.156 3.05501 100.37 2.31352C95.0137 0.821361 89.6165 0.272962 84.26 0.0663556C78.9275 -0.101621 73.5897 0.0747434 68.2799 0.594349C62.9993 1.07774 57.7472 1.83376 52.5447 2.85937C47.3381 3.84527 42.1856 5.09847 37.1079 6.61399C35.5774 7.07056 34.0343 7.5603 32.5166 8.06789L33.3736 10.5421C34.8581 10.0549 36.3528 9.58555 37.8578 9.15703C42.8615 7.7553 47.9338 6.61108 53.0548 5.7289C58.1815 4.88338 63.3484 4.3036 68.535 3.99187C73.6958 3.69531 78.8707 3.74218 84.0253 4.13216C89.1267 4.58619 94.2281 5.40751 98.9239 6.97364C101.186 7.69866 103.334 8.74309 105.301 10.0753C107.086 11.3914 108.362 12.9882 108.543 14.562C108.629 15.403 108.508 16.2525 108.191 17.0361C107.802 17.9535 107.287 18.812 106.66 19.5868C105.143 21.3182 103.398 22.8368 101.475 24.1016C100.628 24.678 99.758 25.2341 98.8704 25.7799L97.3808 22.7854L88.6676 34.9446H98.3373V34.9956L98.4266 34.9446H103.413L102.25 32.6132C103.513 31.7599 104.729 30.8403 105.895 29.8585C108.176 27.9657 110.172 25.7535 111.82 23.2904C112.709 21.9254 113.397 20.4392 113.861 18.8777C114.394 17.1522 114.491 15.3216 114.144 13.5493Z" fill="#0072CE"/>
<path d="M2.43116 25.8312C1.59656 27.0098 0.93835 28.3039 0.477326 29.6725C-0.0259052 31.1105 -0.143289 32.6554 0.136884 34.1529C0.417056 35.6504 1.08499 37.0483 2.07406 38.2071C2.99363 39.3116 4.07047 40.275 5.27008 41.0665C6.06086 41.5678 6.88017 42.0226 7.72385 42.4286L8.45845 40.3013C7.80802 39.9467 7.1831 39.5718 6.56583 39.1637C4.5916 37.7506 2.93109 35.8911 2.5842 33.7179C2.18884 31.5549 3.1173 29.2746 4.50742 27.3029C6.02128 25.3107 7.81014 23.5433 9.82052 22.0536C11.8408 20.5255 13.9637 19.138 16.1743 17.9011L17.4216 14.2842C14.1944 15.9063 11.1209 17.8178 8.23909 19.9952C6.03505 21.654 4.07932 23.6192 2.43116 25.8312V25.8312Z" fill="#0072CE"/>
</g>
<defs>
<clipPath id="clip0_243_2">
<rect width="300" height="46.9149" fill="white"/>
</clipPath>
</defs>
</svg>
