<svg width="115" height="47" viewBox="0 0 115 47" fill="none" xmlns="http://www.w3.org/2000/svg">
<path d="M54.0686 34.9809C53.2342 35.1222 52.3897 35.1956 51.5434 35.2002C49.2401 35.1951 47.4547 33.9504 47.4547 31.1523V24.6582H45.5518V22.0489H47.4547V19.6053L48.9494 18.3555H51.0256V22.0489H54.1502V24.6582H51.0256V29.6576C51.0256 31.1242 50.944 32.1011 52.3826 32.1011C52.9461 32.093 53.5085 32.0479 54.0661 31.966L54.0686 34.9809Z" fill="#333F48"/>
<path d="M67.4624 26.4229V30.6876C67.4624 34.1923 64.4475 35.2253 61.7029 35.2253C58.9584 35.2253 55.9434 34.1923 55.9434 30.6876V26.4229C55.9434 23.7599 57.655 21.75 61.7029 21.75C65.7509 21.75 67.4624 23.7599 67.4624 26.4229ZM59.5297 26.9126V30.0372C59.5297 31.7487 60.1801 32.4553 61.7029 32.4553C63.2257 32.4553 63.8761 31.7487 63.8761 30.0372V26.9126C63.8761 25.2291 63.2257 24.5226 61.7029 24.5226C60.1801 24.5226 59.5297 25.2291 59.5297 26.9126Z" fill="#333F48"/>
<path d="M32.9978 37.0972H19.0837L16.0637 46.3741H8.51367L21.0809 9.91699H31.0031L43.6036 46.3741H36.0535L32.9978 37.0972ZM21.2416 30.348H30.7863L26.3099 16.4417H25.7742L21.2416 30.348Z" fill="#333F48"/>
<path d="M70.7705 46.3741V39.903L88.3983 16.281H70.7705V9.9043H95.8948V16.281L78.9608 39.9566H95.9484V46.3741H70.7705Z" fill="#333F48"/>
<path d="M114.156 13.5444C113.792 11.8061 113.003 10.1849 111.86 8.82566C110.831 7.61183 109.628 6.55715 108.289 5.69596C105.831 4.19108 103.168 3.05013 100.382 2.30864C95.0254 0.816478 89.6282 0.268079 84.2717 0.0614728C78.9392 -0.106504 73.6014 0.0698606 68.2916 0.589466C63.011 1.07286 57.7589 1.82888 52.5564 2.85449C47.3498 3.84039 42.1973 5.09359 37.1196 6.60911C35.5891 7.06568 34.046 7.55542 32.5283 8.06301L33.3853 10.5372C34.8698 10.05 36.3645 9.58067 37.8695 9.15215C42.8732 7.75042 47.9455 6.6062 53.0665 5.72402C58.1932 4.8785 63.3601 4.29872 68.5467 3.98699C73.7075 3.69043 78.8824 3.7373 84.037 4.12728C89.1384 4.58131 94.2398 5.40263 98.9356 6.96876C101.198 7.69378 103.346 8.73821 105.313 10.0704C107.098 11.3865 108.374 12.9833 108.555 14.5571C108.641 15.3981 108.52 16.2476 108.203 17.0312C107.814 17.9486 107.299 18.8071 106.672 19.5819C105.155 21.3133 103.41 22.8319 101.487 24.0967C100.64 24.6731 99.7697 25.2292 98.8821 25.775L97.3925 22.7805L88.6793 34.9397H98.349V34.9907L98.4383 34.9397H103.425L102.262 32.6083C103.525 31.755 104.741 30.8354 105.907 29.8536C108.188 27.9608 110.184 25.7486 111.832 23.2855C112.721 21.9205 113.409 20.4343 113.873 18.8728C114.406 17.1473 114.503 15.3167 114.156 13.5444Z" fill="#0072CE"/>
<path d="M2.44288 25.8263C1.60828 27.0049 0.950069 28.299 0.489045 29.6676C-0.0141867 31.1056 -0.13157 32.6505 0.148603 34.148C0.428775 35.6455 1.09671 37.0434 2.08578 38.2022C3.00535 39.3067 4.08219 40.2701 5.2818 41.0616C6.07258 41.5629 6.89189 42.0177 7.73557 42.4237L8.47017 40.2964C7.81974 39.9418 7.19482 39.5669 6.57755 39.1588C4.60332 37.7457 2.94281 35.8862 2.59592 33.713C2.20056 31.55 3.12902 29.2697 4.51914 27.298C6.033 25.3058 7.82186 23.5384 9.83224 22.0487C11.8525 20.5206 13.9754 19.1331 16.186 17.8962L17.4333 14.2793C14.2061 15.9014 11.1326 17.8129 8.25081 19.9903C6.04677 21.6491 4.09104 23.6143 2.44288 25.8263Z" fill="#0072CE"/>
</svg>
