<svg xmlns="http://www.w3.org/2000/svg" width="26.849" height="35.799" viewBox="0 0 26.849 35.799">
  <path id="Icon_awesome-award" data-name="Icon awesome-award" d="M6.79,25.354c-.608-.608-.291-.436-1.756-.829a5.044,5.044,0,0,1-1.778-.931L.084,31.372a1.119,1.119,0,0,0,1.079,1.54l3.684-.141,2.534,2.676A1.118,1.118,0,0,0,9.228,35.1l3.639-8.923a5.018,5.018,0,0,1-6.077-.824Zm19.974,6.018-3.172-7.778a5.033,5.033,0,0,1-1.778.931c-1.473.394-1.15.222-1.756.829a5.019,5.019,0,0,1-6.078.824L17.619,35.1a1.119,1.119,0,0,0,1.848.347L22,32.772l3.684.141a1.119,1.119,0,0,0,1.079-1.54Zm-8.376-7.6c1.068-1.087,1.191-.994,2.712-1.408a2.841,2.841,0,0,0,1.991-2.026c.523-1.986.387-1.746,1.814-3.2a2.9,2.9,0,0,0,.729-2.767c-.522-1.984-.523-1.707,0-3.694a2.9,2.9,0,0,0-.729-2.767c-1.427-1.453-1.291-1.214-1.814-3.2A2.841,2.841,0,0,0,21.1,2.686c-1.949-.532-1.714-.393-3.143-1.847A2.782,2.782,0,0,0,15.239.1C13.29.629,13.562.629,11.61.1A2.78,2.78,0,0,0,8.891.839C7.464,2.292,7.7,2.153,5.749,2.686A2.841,2.841,0,0,0,3.758,4.712C3.236,6.7,3.371,6.458,1.944,7.91a2.9,2.9,0,0,0-.729,2.767c.522,1.983.523,1.706,0,3.693a2.9,2.9,0,0,0,.729,2.768c1.427,1.453,1.291,1.213,1.814,3.2a2.841,2.841,0,0,0,1.991,2.026c1.565.426,1.682.359,2.711,1.408a2.779,2.779,0,0,0,3.478.407,2.774,2.774,0,0,1,2.974,0A2.778,2.778,0,0,0,18.388,23.772ZM6.828,12.3a6.6,6.6,0,1,1,6.6,6.713,6.656,6.656,0,0,1-6.6-6.713Z" transform="translate(0 0.001)" fill="#fff"/>
</svg>
