<svg enable-background="new 0 0 52 53.1" height="53.1" viewBox="0 0 52 53.1" width="52" xmlns="http://www.w3.org/2000/svg"><g fill="#136db5"><path d="m52 53.1h-52v-48h52zm-50.6-1.4h49.1v-45.1h-49.1z"/><path d="m.7 17.4h50.6v1.4h-50.6z"/><path d="m12.8 12c-.4 0-.7-.3-.7-.7v-10.6c-.1-.4.3-.7.7-.7s.7.3.7.7v10.6c0 .4-.3.7-.7.7z"/><path d="m25 12c-.4 0-.7-.3-.7-.7v-10.6c0-.4.3-.7.7-.7s.7.3.7.7v10.6c0 .4-.3.7-.7.7z"/><path d="m37.2 12c-.4 0-.7-.3-.7-.7v-10.6c0-.4.3-.7.7-.7s.8.3.8.7v10.6c0 .4-.4.7-.8.7z"/><path d="m21.7 34.6h-10.8v-10.9h10.9v10.9zm-9.4-1.5h8v-8h-8z"/><path d="m31.4 34.6h-10.8v-10.9h10.9v10.9zm-9.4-1.5h8v-8h-8z"/><path d="m21.7 44h-10.8v-10.9h10.9v10.9zm-9.4-1.4h8v-8h-8z"/><path d="m31.4 44h-10.8v-10.9h10.9v10.9zm-9.4-1.4h8v-8h-8z"/><path d="m41.3 34.6h-10.2v-1.5h8.7v-8h-8.7v-1.4h10.2z"/></g></svg>