<svg enable-background="new 0 0 60 58.6" height="58.6" viewBox="0 0 60 58.6" width="60" xmlns="http://www.w3.org/2000/svg"><g fill="#136db5"><path d="m29.8 26.3c-7.3 0-13.2-5.9-13.2-13.2s6-13.1 13.2-13.1c7.3 0 13.2 5.9 13.2 13.2s-5.9 13.1-13.2 13.1zm0-24.8c-6.4 0-11.7 5.2-11.7 11.7s5.2 11.7 11.7 11.7c6.4 0 11.7-5.2 11.7-11.7s-5.2-11.7-11.7-11.7z"/><path d="m44.2 28.4c-3.3 0-6.5-1.5-8.6-4l1.1-1c1.9 2.2 4.6 3.5 7.5 3.5 5.4 0 9.8-4.4 9.8-9.8s-4.4-9.8-9.8-9.8c-1 0-2 .1-2.9.4l-.4-1.4c1.1-.2 2.2-.3 3.3-.3 6.2 0 11.2 5 11.2 11.2s-5 11.2-11.2 11.2z"/><path d="m15.6 28.4c-6.2 0-11.2-5-11.2-11.2s5-11.2 11.2-11.2c1.1 0 2.3.2 3.3.5l-.4 1.4c-.9-.3-1.9-.4-2.9-.4-5.4 0-9.8 4.4-9.8 9.8s4.4 9.8 9.8 9.8c2.9 0 5.6-1.3 7.5-3.5l1.1 1c-2.1 2.4-5.2 3.8-8.6 3.8z"/><path d="m47.1 58.6h-1.5v-12.6c0-7.5-6.1-13.6-13.6-13.6h-3.9c-7.5 0-13.6 6.1-13.6 13.6v12.3h-1.5v-12.3c0-8.3 6.7-15 15-15h4c8.3 0 15 6.7 15 15v12.6z"/><path d="m1.5 58.4h-1.5v-11.2c0-8.4 6.8-15.2 15.3-15.2 2 0 3.9.4 5.8 1.1l-.6 1.4c-1.7-.7-3.4-1-5.2-1-7.6 0-13.8 6.2-13.8 13.8z"/><path d="m60 58.4h-1.5v-11.2c0-7.6-6.2-13.8-13.8-13.8-1.8 0-3.5.3-5.2 1l-.5-1.3c1.8-.8 3.8-1.1 5.8-1.1 8.4 0 15.2 6.8 15.2 15.2z"/></g></svg>