<svg width="107" height="44" viewBox="0 0 107 44" fill="none" xmlns="http://www.w3.org/2000/svg">
<path d="M50.4084 32.6224C49.6299 32.7516 48.8424 32.8185 48.0534 32.8224C47.5426 32.8744 47.0266 32.8128 46.5424 32.6422C46.0581 32.4716 45.6176 32.1961 45.2521 31.8354C44.8867 31.4748 44.6055 31.0379 44.4285 30.5559C44.2515 30.074 44.1832 29.5589 44.2284 29.0474V22.9914H42.4534V20.5624H44.2274V18.2824L45.6204 17.1174H47.5714V20.5624H50.4874V22.9914H47.5714V27.6534C47.5714 29.0214 47.4954 29.9334 48.8384 29.9334C49.3639 29.9258 49.8884 29.8834 50.4084 29.8064V32.6224Z" fill="#333F48"/>
<path d="M62.8973 24.6414V28.6194C62.8973 31.8874 60.0853 32.8504 57.5263 32.8504C54.9673 32.8504 52.1553 31.8874 52.1553 28.6194V24.6414C52.1553 22.1584 53.7553 20.2844 57.5263 20.2844C61.2973 20.2844 62.8973 22.1594 62.8973 24.6414ZM55.4973 25.0984V28.0114C55.4973 29.6114 56.1053 30.2654 57.5243 30.2654C58.9433 30.2654 59.5513 29.6074 59.5513 28.0114V25.0984C59.5513 23.5274 58.9433 22.8684 57.5243 22.8684C56.1053 22.8684 55.4993 23.5284 55.4993 25.0984H55.4973Z" fill="#333F48"/>
<path d="M30.7583 34.5934H17.7823L14.9663 43.2434H7.92627L19.6453 9.24341H28.9003L40.6513 43.2434H33.6073L30.7583 34.5934ZM19.7943 28.3094H28.6943L24.5263 15.3344H24.0263L19.7943 28.3094Z" fill="#333F48"/>
<path d="M65.9814 43.2473V37.2123L82.4214 15.1833H65.9814V9.24829H89.4124V15.1833L73.6204 37.2623H89.4624V43.2473H65.9814Z" fill="#333F48"/>
<path d="M106.441 12.6305C106.101 11.0092 105.365 9.49749 104.298 8.23046C103.338 7.09846 102.215 6.1151 100.966 5.31246C98.6744 3.90909 96.1917 2.84441 93.5952 2.15146C88.6872 0.867638 83.6453 0.164822 78.5732 0.0574571C73.6012 -0.0992764 68.6242 0.0647304 63.6732 0.548457C53.8226 1.48537 44.0846 3.36566 34.5932 6.16346C33.1552 6.58746 31.7262 7.04446 30.3022 7.51746L31.1022 9.82646C32.4892 9.37146 33.8822 8.93446 35.2862 8.53446C44.6205 5.88446 54.2178 4.26908 63.9052 3.71746C68.7182 3.44127 73.5442 3.48537 78.3512 3.84946C83.0701 4.18748 87.7334 5.0755 92.2462 6.49546C94.3584 7.17089 96.3633 8.14437 98.2002 9.38646C98.954 9.85125 99.6089 10.46 100.127 11.1779C100.646 11.8958 101.018 12.7088 101.222 13.5705C101.303 14.3551 101.19 15.1476 100.893 15.8785C100.529 16.7373 100.045 17.5408 99.4572 18.2655C98.0417 19.88 96.4151 21.2964 94.6212 22.4765C93.8322 23.0135 93.0212 23.5315 92.1942 24.0405L90.8022 21.2475L82.6832 32.5685L91.7002 32.5555V32.6035L91.7832 32.5555L96.4332 32.5495L95.3462 30.3785C96.524 29.5826 97.659 28.7251 98.7462 27.8095C100.873 26.044 102.734 23.9815 104.272 21.6855C105.102 20.4116 105.745 19.0251 106.18 17.5685C106.671 15.9687 106.76 14.273 106.441 12.6305V12.6305Z" fill="#0072CE"/>
<path d="M2.26438 24.0865C1.48577 25.1846 0.871943 26.3907 0.442378 27.6665C-0.00680161 29.0139 -0.116039 30.4516 0.124378 31.8515C0.405914 33.2396 1.02671 34.5365 1.93138 35.6265C2.78919 36.6538 3.79284 37.55 4.91038 38.2865C5.64664 38.7548 6.40998 39.1792 7.19638 39.5575L7.88238 37.5675C7.27538 37.2355 6.68238 36.8875 6.11738 36.5065C4.25906 35.3746 2.92473 33.5527 2.40638 31.4395C2.19053 29.2871 2.83391 27.1366 4.19638 25.4565C5.60809 23.5967 7.27675 21.9469 9.15238 20.5565C11.0363 19.1312 13.0167 17.8381 15.0794 16.6865L16.2414 13.3145C13.2288 14.8272 10.3597 16.6102 7.66938 18.6415C5.61726 20.1894 3.79715 22.023 2.26438 24.0865V24.0865Z" fill="#0072CE"/>
</svg>
