<svg enable-background="new 0 0 53 71.5" height="71.5" viewBox="0 0 53 71.5" width="53" xmlns="http://www.w3.org/2000/svg"><g fill="#136db5"><path d="m48.5 71.5h-47.3c-.5 0-.9-.4-.9-.9 0-.3 0-.7 0-1.2 0-2.6 0-4 .1-4.5.2-1 .9-1.8 1.4-2.6.8-1.1 1.9-2 3-2.8 3.5-2.4 7.9-3.6 13.6-3.7v-4.8c-1.3-.8-4.9-3.5-5.1-7.7-.9-1.1-3.3-4.7-2.3-6.8.4-.8 1.1-1.3 2.3-1.5v-1.7c0-.3 0-.7 0-1-.1-1.1-.1-2.3.4-3.4.2-.5.6-1 1-1.6 1.2-1.5 2.8-2.8 4.8-3.9 1.5-.8 3.1-1.5 5.1-2l4.2-1.3c.3-.1.5 0 .8.1.2.1.4.4.4.7l.1 1.5c1 .5 2.1 1 3.2 1.6 1.7 1 4.5 2.6 4.5 5v6c1.1.2 1.9.7 2.3 1.5 1 2.2-1.4 5.7-2.3 6.8-.2 4.1-4.5 6.9-6.2 7.9v4.7c.7 0 1.7.1 3.2.2 5.2.5 9.1 2.1 11.8 4.6.9.9 1.6 1.8 2.1 2.8.9 1.8.8 3.7.7 5.6 0 .5-.1 1.1-.1 1.6.1.4-.3.8-.8.8zm-46.4-1.8h45.5c0-.3 0-.5 0-.8.1-1.7.2-3.3-.5-4.7-.4-.8-1-1.6-1.8-2.3-2.4-2.3-6-3.7-10.8-4.2-.3 0-3.1-.2-3.7-.2-.5.1-1.1-.3-1.1-.9v-6.1c0-.3.2-.6.5-.8.6-.3 5.7-3 5.7-6.8 0-.2.1-.4.2-.6 1.2-1.5 2.7-4.2 2.2-5.2-.2-.4-1.1-.5-1.6-.5s-.9-.4-.9-.9v-6.7c0-1.4-2.3-2.7-3.5-3.4-1.3-.7-2.4-1.3-3.6-1.8-.3-.1-.5-.4-.5-.7l-.1-.9-3.2 1c-1.8.5-3.3 1.1-4.7 1.9-1.8 1-3.3 2.1-4.3 3.4-.4.5-.6.9-.8 1.3-.3.7-.3 1.6-.2 2.5v1.1 2.5c0 .5-.4.9-.9.9s-1.3.1-1.6.5c-.5 1 1.1 3.7 2.2 5.2.1.2.2.4.2.6 0 4.2 4.6 6.7 4.7 6.7.3.2.5.5.5.8v6.2c0 .5-.4.9-.9.9-5.8 0-10.2 1.1-13.5 3.4-1 .7-1.9 1.5-2.6 2.4-.5.6-1 1.2-1.1 1.9-.1.4-.1 2.9 0 4.1.2 0 .2.1.2.2z"/><path d="m6.7 25.1c-3.7 0-6.7-3-6.7-6.7s3-6.7 6.7-6.7 6.7 3 6.7 6.7c.1 3.7-3 6.7-6.7 6.7zm0-11.6c-2.7 0-4.9 2.2-4.9 4.9s2.2 4.9 4.9 4.9 4.9-2.2 4.9-4.9c.1-2.7-2.1-4.9-4.9-4.9z"/><path d="m26.4 13.5c-3.7 0-6.7-3-6.7-6.7s3-6.7 6.7-6.7 6.7 3 6.7 6.7-3 6.7-6.7 6.7zm0-11.7c-2.7 0-4.9 2.2-4.9 4.9s2.2 4.9 4.9 4.9 4.9-2.2 4.9-4.9-2.2-4.9-4.9-4.9z"/><path d="m46.3 25.1c-3.7 0-6.7-3-6.7-6.7s3-6.7 6.7-6.7 6.7 3 6.7 6.7-3 6.7-6.7 6.7zm0-11.6c-2.7 0-4.9 2.2-4.9 4.9s2.2 4.9 4.9 4.9 4.9-2.2 4.9-4.9-2.2-4.9-4.9-4.9z"/></g></svg>