<svg enable-background="new 0 0 56 58.2" height="58.2" viewBox="0 0 56 58.2" width="56" xmlns="http://www.w3.org/2000/svg"><g fill="#136db5"><path d="m56 38.6h-7.1v-1.6h5.5v-22.9h-52.8v22.9h29.7v1.6h-31.3v-26.1h56z"/><path d="m8.4 19.3h9.3v1.6h-9.3z"/><path d="m27.8 32.7c-3.7 0-6.7-3-6.7-6.7s3-6.7 6.7-6.7 6.7 3 6.7 6.7-3 6.7-6.7 6.7zm0-11.8c-2.8 0-5.1 2.3-5.1 5.1s2.3 5.1 5.1 5.1 5.1-2.3 5.1-5.1-2.3-5.1-5.1-5.1z"/><path d="m11.3 13.3h-1.6v-4.6c0-2.4 2-4.4 4.4-4.4s4.4 2 4.4 4.4v4.2h-1.6v-4.2c0-1.5-1.3-2.8-2.8-2.8s-2.8 1.3-2.8 2.8z"/><path d="m26.8 12.9h-1.6v-5.8c0-1.7-1.4-3.1-3.1-3.1s-3.1 1.4-3.1 3.1v5.8h-1.6v-5.8c0-2.6 2.1-4.6 4.6-4.6 2.6 0 4.6 2.1 4.6 4.6v5.8z"/><path d="m34 13.3h-1.6v-8.9c0-1.5-1.3-2.8-2.8-2.8s-2.8 1.3-2.8 2.8v8.9h-1.6v-8.9c0-2.4 2-4.4 4.4-4.4s4.4 2 4.4 4.4z"/><path d="m42.2 13.2h-1.6v-5.6c0-1.7-1.4-3.1-3.1-3.1s-3.1 1.4-3.1 3.1v5.6h-1.6v-5.6c.1-2.6 2.2-4.6 4.7-4.6 2.6 0 4.6 2.1 4.6 4.6v5.6z"/><path d="m29.9 58.2h-.4c-10.9 0-19.8-8.9-19.8-19.8h1.6c0 10 8.2 18.2 18.2 18.2h.4c10 0 18.2-8.2 18.2-18.2v-16.7c-6.3.4-6.4 5.5-6.4 5.7v7.2h-.8c-3.9 0-6.8 1-8.6 3.1-2.5 3-1.9 7.1-1.9 7.2l-1.6.2c0-.2-.7-4.9 2.3-8.4 2-2.3 5-3.5 9-3.7v-5.7c0-.1.2-7.3 8.8-7.3h.8v18.3c0 11-8.9 19.9-19.8 19.9z"/></g></svg>